<svg width="100" height="50" viewBox="0 0 100 50" fill="none" xmlns="http://www.w3.org/2000/svg">
<g clip-path="url(#clip0_3_2)">
<path d="M72.736 46C72.2027 46 71.936 45.7333 71.936 45.2V29.84C71.936 29.648 71.9467 29.4773 71.968 29.328C72.0107 29.1787 72.1067 29.0293 72.256 28.88L76.416 24.72V23.6L72.16 19.344C72.0107 19.1733 71.9147 19.0133 71.872 18.864C71.8507 18.7147 71.84 18.5547 71.84 18.384V4.144C71.84 3.61066 72.1067 3.344 72.64 3.344H81.696C82.2293 3.344 82.496 3.61066 82.496 4.144V19.824H89.664V4.144C89.664 3.61066 89.9307 3.344 90.464 3.344H99.52C100.053 3.344 100.32 3.61066 100.32 4.144V18.384C100.32 18.5547 100.309 18.7147 100.288 18.864C100.267 19.0133 100.171 19.1733 100 19.344L95.744 23.6V24.72L99.904 28.88C100.075 29.0293 100.171 29.1787 100.192 29.328C100.213 29.4773 100.224 29.648 100.224 29.84V45.2C100.224 45.7333 99.9573 46 99.424 46H90.336C89.8027 46 89.536 45.7333 89.536 45.2V28.336H82.624V45.2C82.624 45.7333 82.3573 46 81.824 46H72.736Z" fill="#3D3D99"/>
<path d="M-0.0999998 37C-0.433333 37 -0.6 36.8333 -0.6 36.5V15.5C-0.6 15.1667 -0.433333 15 -0.0999998 15H10.6C10.9067 15 11.1733 15.1133 11.4 15.34L15.4 19.34C15.6267 19.5533 15.74 19.82 15.74 20.14V36.5C15.74 36.8333 15.5733 37 15.24 37H9.9C9.56667 37 9.4 36.8333 9.4 36.5V20.94C9.4 20.3133 9.08667 20 8.46 20H5.74V36.5C5.74 36.8333 5.57333 37 5.24 37H-0.0999998ZM25.4156 37C25.109 37 24.8423 36.8867 24.6156 36.66L20.6156 32.66C20.389 32.4467 20.2756 32.18 20.2756 31.86V20.14C20.2756 19.82 20.389 19.5533 20.6156 19.34L24.6156 15.34C24.8423 15.1133 25.109 15 25.4156 15H31.4756C31.7956 15 32.0623 15.1133 32.2756 15.34L36.2756 19.34C36.5023 19.5533 36.6156 19.82 36.6156 20.14V31.86C36.6156 32.18 36.5023 32.4467 36.2756 32.66L32.2756 36.66C32.0623 36.8867 31.7956 37 31.4756 37H25.4156ZM27.7556 32.34H29.1556C29.5823 32.34 29.8756 32.2533 30.0356 32.08C30.1956 31.9067 30.2756 31.6 30.2756 31.16V20.84C30.2756 20.4 30.1956 20.0933 30.0356 19.92C29.8756 19.7467 29.5823 19.66 29.1556 19.66H27.7556C27.3156 19.66 27.0156 19.7467 26.8556 19.92C26.6956 20.0933 26.6156 20.4 26.6156 20.84V31.16C26.6156 31.6 26.6956 31.9067 26.8556 32.08C27.0156 32.2533 27.3156 32.34 27.7556 32.34ZM46.275 37C45.9683 37 45.7017 36.8867 45.475 36.66L41.475 32.66C41.2483 32.4467 41.135 32.18 41.135 31.86V15.5C41.135 15.1667 41.3017 15 41.635 15H46.975C47.3083 15 47.475 15.1667 47.475 15.5V32H50.815V15.5C50.815 15.1667 50.9817 15 51.315 15H56.635C56.9683 15 57.135 15.1667 57.135 15.5V32H60.475V15.5C60.475 15.1667 60.6417 15 60.975 15H66.315C66.6483 15 66.815 15.1667 66.815 15.5V31.86C66.815 32.18 66.7017 32.4467 66.475 32.66L62.475 36.66C62.2483 36.8867 61.9817 37 61.675 37H57.115C56.795 37 56.5283 36.8867 56.315 36.66L53.615 33.96H54.335L51.635 36.66C51.4217 36.8867 51.155 37 50.835 37H46.275Z" fill="#3D3D99"/>
</g>
<defs>
<clipPath id="clip0_3_2">
<rect width="100" height="50" fill="white"/>
</clipPath>
</defs>
</svg>
